<svg width="36" height="35" viewBox="0 0 36 35" fill="none" xmlns="http://www.w3.org/2000/svg">
<path d="M32.3333 21.875C32.3333 27.5187 27.7687 32.0833 22.125 32.0833L23.6562 29.5312" stroke="white" stroke-width="1.5" stroke-linecap="round" stroke-linejoin="round"/>
<path d="M3.16699 13.1243C3.16699 7.4806 7.73158 2.91602 13.3753 2.91602L11.8441 5.4681" stroke="white" stroke-width="1.5" stroke-linecap="round" stroke-linejoin="round"/>
<path d="M32.3333 6.12435V6.28477C32.3333 6.6931 32.0125 7.01393 31.6042 7.01393H18.4792C18.0708 7.01393 17.75 6.6931 17.75 6.28477V6.12435C17.75 3.55768 18.3917 2.91602 20.9875 2.91602H29.0958C31.6917 2.91602 32.3333 3.55768 32.3333 6.12435Z" fill="white"/>
<path d="M18.4792 8.47266C18.0708 8.47266 17.75 8.79349 17.75 9.20182V10.6602V12.1039C17.75 14.6706 18.3917 15.3122 20.9875 15.3122H29.0958C31.6917 15.3122 32.3333 14.6706 32.3333 12.1039V10.6602V9.20182C32.3333 8.79349 32.0125 8.47266 31.6042 8.47266H18.4792Z" fill="white"/>
<path d="M17.7503 22.8958V23.0563C17.7503 23.4646 17.4295 23.7854 17.0212 23.7854H3.89616C3.48783 23.7854 3.16699 23.4646 3.16699 23.0563V22.8958C3.16699 20.3292 3.80866 19.6875 6.40449 19.6875H14.5128C17.1087 19.6875 17.7503 20.3292 17.7503 22.8958Z" fill="white"/>
<path d="M3.89616 25.2441C3.48783 25.2441 3.16699 25.565 3.16699 25.9733V27.4316V28.8754C3.16699 31.4421 3.80866 32.0837 6.40449 32.0837H14.5128C17.1087 32.0837 17.7503 31.4421 17.7503 28.8754V27.4316V25.9733C17.7503 25.565 17.4295 25.2441 17.0212 25.2441H3.89616Z" fill="white"/>
</svg>
