<svg width="23" height="20" viewBox="0 0 23 20" fill="none" xmlns="http://www.w3.org/2000/svg">
<path d="M14.4513 5.06836H5.79801C5.54134 5.06836 5.30301 5.07753 5.08301 5.08669C2.91051 5.21503 2.33301 6.01253 2.33301 8.48753V9.01919C2.33301 9.52336 2.74551 9.93586 3.24967 9.93586H16.9997C17.5038 9.93586 17.9163 9.52336 17.9163 9.01919V8.48753C17.9163 5.75586 17.2197 5.06836 14.4513 5.06836Z" fill="white"/>
<path d="M3.24967 11.3105C2.74551 11.3105 2.33301 11.723 2.33301 12.2272V14.8947C2.33301 17.6264 3.02967 18.3139 5.79801 18.3139H14.4513C17.1738 18.3139 17.8888 17.6539 17.9163 15.0414V12.2272C17.9163 11.723 17.5038 11.3105 16.9997 11.3105H3.24967ZM6.87967 16.0772H5.31217C4.93634 16.0772 4.62467 15.7655 4.62467 15.3897C4.62467 15.0139 4.93634 14.7022 5.31217 14.7022H6.88884C7.26467 14.7022 7.57634 15.0139 7.57634 15.3897C7.57634 15.7655 7.26467 16.0772 6.87967 16.0772ZM12.0038 16.0772H8.85051C8.47467 16.0772 8.16301 15.7655 8.16301 15.3897C8.16301 15.0139 8.47467 14.7022 8.85051 14.7022H12.0038C12.3797 14.7022 12.6913 15.0139 12.6913 15.3897C12.6913 15.7655 12.3888 16.0772 12.0038 16.0772Z" fill="white"/>
<path d="M20.6665 11.2844V6.48107C20.6665 3.6119 19.0256 2.36523 16.5506 2.36523H8.36481C7.66815 2.36523 7.04481 2.46607 6.49481 2.6769C6.06398 2.83273 5.67898 3.0619 5.36731 3.3644C5.20231 3.52023 5.33065 3.7769 5.56898 3.7769H15.5331C17.5956 3.7769 19.264 5.44523 19.264 7.50773V14.0802C19.264 14.3094 19.5115 14.4377 19.6765 14.2727C20.309 13.6036 20.6665 12.6227 20.6665 11.2844Z" fill="white"/>
</svg>
