<svg width="35" height="35" viewBox="0 0 35 35" fill="none" xmlns="http://www.w3.org/2000/svg">
<path d="M19.2357 8.75H9.90241C9.52324 8.75 9.15866 8.76458 8.80866 8.80833C4.88574 9.14375 2.91699 11.4625 2.91699 15.7354V21.5687C2.91699 27.4021 5.25033 28.5542 9.90241 28.5542H10.4857C10.8066 28.5542 11.2295 28.7729 11.4191 29.0208L13.1691 31.3542C13.942 32.3896 15.1962 32.3896 15.9691 31.3542L17.7191 29.0208C17.9378 28.7292 18.2878 28.5542 18.6524 28.5542H19.2357C23.5087 28.5542 25.8274 26.6 26.1628 22.6625C26.2066 22.3125 26.2212 21.9479 26.2212 21.5687V15.7354C26.2212 11.0833 23.8878 8.75 19.2357 8.75ZM9.47949 20.4167C8.66283 20.4167 8.02116 19.7604 8.02116 18.9583C8.02116 18.1562 8.67741 17.5 9.47949 17.5C10.2816 17.5 10.9378 18.1562 10.9378 18.9583C10.9378 19.7604 10.2816 20.4167 9.47949 20.4167ZM14.5691 20.4167C13.7524 20.4167 13.1107 19.7604 13.1107 18.9583C13.1107 18.1562 13.767 17.5 14.5691 17.5C15.3712 17.5 16.0274 18.1562 16.0274 18.9583C16.0274 19.7604 15.3857 20.4167 14.5691 20.4167ZM19.6732 20.4167C18.8566 20.4167 18.2149 19.7604 18.2149 18.9583C18.2149 18.1562 18.8712 17.5 19.6732 17.5C20.4753 17.5 21.1316 18.1562 21.1316 18.9583C21.1316 19.7604 20.4753 20.4167 19.6732 20.4167Z" fill="white"/>
<path d="M32.0544 9.90143V15.7348C32.0544 18.6514 31.1502 20.6348 29.3419 21.7285C28.9044 21.991 28.3939 21.641 28.3939 21.1306L28.4085 15.7348C28.4085 9.90143 25.0689 6.56185 19.2356 6.56185L10.3544 6.57643C9.84395 6.57643 9.49395 6.06602 9.75645 5.62852C10.8502 3.82018 12.8335 2.91602 15.7356 2.91602H25.0689C29.721 2.91602 32.0544 5.24935 32.0544 9.90143Z" fill="white"/>
</svg>
