<svg width="48" height="48" viewBox="0 0 48 48" fill="none" xmlns="http://www.w3.org/2000/svg">
<path d="M24.0008 4C12.9808 4 4.00079 12.98 4.00079 24C4.00079 35.02 12.9808 44 24.0008 44C35.0208 44 44.0008 35.02 44.0008 24C44.0008 12.98 35.0208 4 24.0008 4ZM32.7008 31.14C32.4208 31.62 31.9208 31.88 31.4008 31.88C31.1408 31.88 30.8808 31.82 30.6408 31.66L24.4408 27.96C22.9008 27.04 21.7608 25.02 21.7608 23.24V15.04C21.7608 14.22 22.4408 13.54 23.2608 13.54C24.0808 13.54 24.7608 14.22 24.7608 15.04V23.24C24.7608 23.96 25.3608 25.02 25.9808 25.38L32.1808 29.08C32.9008 29.5 33.1408 30.42 32.7008 31.14Z" fill="url(#paint0_linear_3025_32649)"/>
<defs>
<linearGradient id="paint0_linear_3025_32649" x1="27.5829" y1="-4.94118" x2="-8.16297" y2="12.03" gradientUnits="userSpaceOnUse">
<stop stop-color="#AE8827"/>
<stop offset="1" stop-color="#CCB32E"/>
</linearGradient>
</defs>
</svg>
