<svg width="25" height="24" viewBox="0 0 25 24" fill="none" xmlns="http://www.w3.org/2000/svg">
<path d="M22.9268 8.5C22.9268 11.76 20.5268 14.45 17.4068 14.92V14.86C17.0968 10.98 13.9468 7.83 10.0368 7.52H10.0068C10.4768 4.4 13.1668 2 16.4268 2C20.0168 2 22.9268 4.91 22.9268 8.5Z" fill="#D4D5D9"/>
<path d="M15.9068 14.98C15.6568 11.81 13.1168 9.27 9.94676 9.02C9.77676 9.01 9.59676 9 9.42676 9C5.83676 9 2.92676 11.91 2.92676 15.5C2.92676 19.09 5.83676 22 9.42676 22C13.0168 22 15.9268 19.09 15.9268 15.5C15.9268 15.33 15.9168 15.15 15.9068 14.98ZM10.3068 16.38L9.42676 18L8.54676 16.38L6.92676 15.5L8.54676 14.62L9.42676 13L10.3068 14.62L11.9268 15.5L10.3068 16.38Z" fill="#D4D5D9"/>
</svg>
