<svg width="38" height="38" viewBox="0 0 38 38" fill="none" xmlns="http://www.w3.org/2000/svg">
<path d="M34.8334 13.4577C34.8334 18.6193 31.0334 22.8785 26.0934 23.6227V23.5277C25.6025 17.3843 20.615 12.3968 14.4242 11.906H14.3767C15.1209 6.96602 19.38 3.16602 24.5417 3.16602C30.2259 3.16602 34.8334 7.77352 34.8334 13.4577Z" fill="#292D32"/>
<path d="M23.7184 23.7183C23.3226 18.6992 19.3009 14.6775 14.2817 14.2817C14.0126 14.2658 13.7276 14.25 13.4584 14.25C7.77425 14.25 3.16675 18.8575 3.16675 24.5417C3.16675 30.2258 7.77425 34.8333 13.4584 34.8333C19.1426 34.8333 23.7501 30.2258 23.7501 24.5417C23.7501 24.2725 23.7342 23.9875 23.7184 23.7183ZM14.8517 25.935L13.4584 28.5L12.0651 25.935L9.50008 24.5417L12.0651 23.1483L13.4584 20.5833L14.8517 23.1483L17.4167 24.5417L14.8517 25.935Z" fill="#292D32"/>
</svg>
