<svg width="11" height="13" viewBox="0 0 11 13" fill="none" xmlns="http://www.w3.org/2000/svg">
<path fill-rule="evenodd" clip-rule="evenodd" d="M7.75786 0.677558C6.71756 0.445783 5.64378 0.579109 4.67725 1.05294C3.71319 1.52556 2.90889 2.31008 2.35097 3.28963C2.16518 3.61583 2.0088 3.95985 1.88286 4.31642H0.75C0.335786 4.31642 0 4.6522 0 5.06642C0 5.48063 0.335786 5.81642 0.75 5.81642H1.54173C1.51444 6.06458 1.50066 6.31506 1.50066 6.56642C1.50066 6.81777 1.51444 7.06826 1.54173 7.31642H0.75C0.335786 7.31642 0 7.6522 0 8.06642C0 8.48063 0.335786 8.81642 0.75 8.81642H1.88286C2.0088 9.17299 2.16518 9.517 2.35097 9.8432C2.90889 10.8228 3.71319 11.6073 4.67725 12.0799C5.64378 12.5537 6.71756 12.6871 7.75786 12.4553C8.79635 12.2239 9.73518 11.6439 10.4645 10.8102C10.7372 10.4985 10.7056 10.0247 10.3938 9.75193C10.0821 9.47921 9.60825 9.51084 9.33552 9.8226C8.79896 10.4359 8.13392 10.8347 7.43166 10.9912C6.73121 11.1472 6.00483 11.0602 5.33753 10.733C4.66777 10.4047 4.07729 9.84333 3.65438 9.10083C3.60158 9.00812 3.55177 8.91324 3.50504 8.81642H6.75C7.16421 8.81642 7.5 8.48063 7.5 8.06642C7.5 7.6522 7.16421 7.31642 6.75 7.31642H3.05334C3.01849 7.07014 3.00066 6.81935 3.00066 6.56642C3.00066 6.31349 3.01849 6.06269 3.05334 5.81642H6.75C7.16421 5.81642 7.5 5.48063 7.5 5.06642C7.5 4.6522 7.16421 4.31642 6.75 4.31642H3.50504C3.55177 4.21959 3.60158 4.12472 3.65438 4.03201C4.07729 3.28951 4.66777 2.72814 5.33753 2.3998C6.00483 2.07266 6.73121 1.9856 7.43166 2.14166C8.13392 2.29812 8.79896 2.6969 9.33552 3.31024C9.60825 3.622 10.0821 3.65363 10.3938 3.3809C10.7056 3.10817 10.7372 2.63436 10.4645 2.3226C9.73518 1.48893 8.79635 0.90893 7.75786 0.677558Z" fill="#355DFF"/>
</svg>
