<svg width="18" height="19" viewBox="0 0 18 19" fill="none" xmlns="http://www.w3.org/2000/svg">
<path d="M15.5925 7.51359C15.3823 7.18016 15.1576 6.86849 14.9256 6.57855C14.6574 6.23788 14.15 6.20889 13.8456 6.51332L11.6711 8.68782C11.8306 9.16621 11.8596 9.71708 11.7146 10.2897C11.4609 11.3117 10.6346 12.138 9.61259 12.3917C9.03998 12.5367 8.4891 12.5077 8.01071 12.3482C8.01071 12.3482 6.9742 13.3847 6.22763 14.1313C5.86521 14.4937 5.98118 15.1316 6.46682 15.32C7.24239 15.6172 8.04695 15.7694 8.87326 15.7694C10.1635 15.7694 11.4174 15.3925 12.5627 14.6894C13.7296 13.9646 14.7806 12.8991 15.6287 11.5437C16.3173 10.4492 16.281 8.60808 15.5925 7.51359Z" fill="white"/>
<path d="M10.337 8.09323L7.40866 11.0216C7.039 10.6446 6.7998 10.1228 6.7998 9.55739C6.7998 8.41941 7.72759 7.48438 8.87282 7.48438C9.43819 7.48438 9.96007 7.72357 10.337 8.09323Z" fill="white"/>
<path d="M13.4033 5.02731L10.9461 7.4845C10.417 6.94812 9.68489 6.62919 8.87308 6.62919C7.24945 6.62919 5.94476 7.94114 5.94476 9.55752C5.94476 10.3693 6.27093 11.1014 6.80006 11.6305L4.35013 14.0877H4.34288C3.53831 13.4354 2.79898 12.6018 2.16838 11.616C1.44355 10.4781 1.44355 8.62973 2.16838 7.49174C3.00919 6.17255 4.03845 5.13604 5.18368 4.4257C6.32892 3.72986 7.58288 3.3457 8.87308 3.3457C10.4895 3.3457 12.0551 3.94007 13.4033 5.02731Z" fill="white"/>
<path d="M10.946 9.55682C10.946 10.6948 10.0182 11.6298 8.87298 11.6298C8.82949 11.6298 8.79325 11.6298 8.74976 11.6153L10.9315 9.43359C10.946 9.47708 10.946 9.51333 10.946 9.55682Z" fill="white"/>
<path d="M15.9545 2.47559C15.737 2.25814 15.3819 2.25814 15.1644 2.47559L1.79126 15.856C1.57381 16.0734 1.57381 16.4286 1.79126 16.6461C1.89999 16.7475 2.0377 16.8055 2.18267 16.8055C2.32764 16.8055 2.46536 16.7475 2.57408 16.6388L15.9545 3.25841C16.1792 3.04096 16.1792 2.69304 15.9545 2.47559Z" fill="white"/>
</svg>
