<svg width="38" height="38" viewBox="0 0 38 38" fill="none" xmlns="http://www.w3.org/2000/svg">
<path d="M25.634 3.16602H12.3657C6.60234 3.16602 3.1665 6.60185 3.1665 12.3652V25.6177C3.1665 31.3968 6.60234 34.8327 12.3657 34.8327H25.6182C31.3815 34.8327 34.8173 31.3968 34.8173 25.6335V12.3652C34.8332 6.60185 31.3973 3.16602 25.634 3.16602ZM26.7265 18.2552C26.7265 18.8727 26.2357 19.3635 25.6182 19.3635C25.0007 19.3635 24.5098 18.8727 24.5098 18.2552V17.9702L20.2032 22.2768C19.9657 22.5143 19.649 22.6252 19.3165 22.5935C18.984 22.5618 18.6832 22.3877 18.509 22.1027L16.894 19.696L13.1257 23.4643C12.904 23.686 12.6348 23.781 12.3498 23.781C12.0648 23.781 11.7798 23.6702 11.574 23.4643C11.1465 23.0368 11.1465 22.3402 11.574 21.8968L16.2923 17.1785C16.5298 16.941 16.8465 16.8302 17.179 16.8618C17.5115 16.8935 17.8123 17.0677 17.9865 17.3527L19.6015 19.7593L22.9423 16.4185H22.6573C22.0398 16.4185 21.549 15.9277 21.549 15.3102C21.549 14.6927 22.0398 14.2018 22.6573 14.2018H25.6023C25.7448 14.2018 25.8873 14.2335 26.0298 14.281C26.299 14.3918 26.5207 14.6135 26.6315 14.8827C26.6948 15.0252 26.7107 15.1677 26.7107 15.3102V18.2552H26.7265Z" fill="#292D32"/>
</svg>
