<svg width="38" height="38" viewBox="0 0 38 38" fill="none" xmlns="http://www.w3.org/2000/svg">
<path d="M7.91665 23.75C6.42831 23.75 5.05081 24.2725 3.95831 25.1433C2.50165 26.2992 1.58331 28.0883 1.58331 30.0833C1.58331 33.5825 4.41748 36.4167 7.91665 36.4167C9.51581 36.4167 10.9725 35.815 12.0966 34.8333C13.4108 33.6775 14.25 31.9833 14.25 30.0833C14.25 26.5842 11.4158 23.75 7.91665 23.75ZM9.49998 30.4792C9.49998 30.8908 9.27831 31.2867 8.92998 31.4925L6.95081 32.68C6.76081 32.8067 6.53915 32.8542 6.33331 32.8542C5.93748 32.8542 5.54165 32.6483 5.31998 32.2842C4.98748 31.7142 5.16165 30.9858 5.73165 30.6533L7.14081 29.8142V28.1042C7.12498 27.455 7.66331 26.9167 8.31248 26.9167C8.96165 26.9167 9.49998 27.455 9.49998 28.1042V30.4792Z" fill="#292D32"/>
<path d="M23.5125 6.25443V12.2711H21.1375V6.25443C21.1375 5.82693 20.7575 5.62109 20.5041 5.62109C20.425 5.62109 20.3458 5.63693 20.2666 5.66859L7.71081 10.4028C6.87165 10.7194 6.33331 11.5111 6.33331 12.4136V13.4744C4.89248 14.5511 3.95831 16.2769 3.95831 18.2244V12.4136C3.95831 10.5294 5.11415 8.85109 6.87165 8.18609L19.4433 3.43609C19.7916 3.30943 20.1558 3.24609 20.5041 3.24609C22.0875 3.24609 23.5125 4.52859 23.5125 6.25443Z" fill="#292D32"/>
<path d="M34.0412 22.9577V24.541C34.0412 24.9685 33.7087 25.3169 33.2653 25.3327H30.9537C30.1145 25.3327 29.3545 24.7152 29.2912 23.8918C29.2437 23.401 29.4337 22.9418 29.7503 22.6252C30.0353 22.3243 30.4312 22.166 30.8587 22.166H33.2495C33.7087 22.1818 34.0412 22.5302 34.0412 22.9577Z" fill="#292D32"/>
<path d="M30.8433 20.5048H32.4583C33.3291 20.5048 34.0416 19.7923 34.0416 18.9215V18.2248C34.0416 14.9473 31.3658 12.2715 28.0883 12.2715H9.91165C8.56581 12.2715 7.33081 12.7148 6.33331 13.4748C4.89248 14.5515 3.95831 16.2773 3.95831 18.2248V21.0432C3.95831 21.6448 4.59165 22.0248 5.16165 21.8348C6.04831 21.534 6.98248 21.3757 7.91665 21.3757C12.7141 21.3757 16.625 25.2865 16.625 30.084C16.625 31.224 16.3241 32.4748 15.8491 33.5832C15.5958 34.1532 15.9916 34.834 16.6091 34.834H28.0883C31.3658 34.834 34.0416 32.1582 34.0416 28.8807V28.5798C34.0416 27.709 33.3291 26.9965 32.4583 26.9965H31.0808C29.5608 26.9965 28.1041 26.0623 27.7083 24.5898C27.3916 23.3865 27.7716 22.2148 28.5633 21.4548C29.1491 20.8532 29.9566 20.5048 30.8433 20.5048ZM22.1666 20.1882H14.25C13.6008 20.1882 13.0625 19.6498 13.0625 19.0007C13.0625 18.3515 13.6008 17.8132 14.25 17.8132H22.1666C22.8158 17.8132 23.3541 18.3515 23.3541 19.0007C23.3541 19.6498 22.8158 20.1882 22.1666 20.1882Z" fill="#292D32"/>
</svg>
