<svg width="11" height="13" viewBox="0 0 11 13" fill="none" xmlns="http://www.w3.org/2000/svg">
<path d="M5.1063 12.1081L1.10613 8.10775C0.376732 7.37835 0.376732 6.19569 1.10613 5.46646L6.25424 0.318359L8.80494 2.86906C9.60025 3.66437 9.60025 4.95382 8.80494 5.74913L5.1063 9.4476C4.37179 10.1823 4.37179 11.3734 5.1063 12.1081Z" fill="url(#paint0_linear_3025_28983)"/>
<path d="M10.1357 9.73929L7.76742 12.1076C7.03273 12.8423 5.84161 12.8423 5.10692 12.1076C4.37224 11.3729 4.37224 10.1818 5.10692 9.4471L8.91536 5.63867L10.1357 6.85904C10.931 7.65453 10.931 8.94398 10.1357 9.73929Z" fill="white"/>
<defs>
<linearGradient id="paint0_linear_3025_28983" x1="5.77211" y1="-2.31699" x2="-2.82139" y2="0.742993" gradientUnits="userSpaceOnUse">
<stop stop-color="white"/>
<stop offset="1" stop-color="#A5A5A5"/>
</linearGradient>
</defs>
</svg>
