<svg width="235" height="40" viewBox="0 0 235 40" fill="none" xmlns="http://www.w3.org/2000/svg">
<path d="M54.2866 31.3566V10.201H58.155V28.3343H67.5239V31.3566H54.2866ZM76.0097 31.7192C74.7202 31.7192 73.6625 31.5178 72.8364 31.1148C72.0103 30.6917 71.3958 30.1376 70.9928 29.4526C70.5899 28.7675 70.3884 28.012 70.3884 27.1859C70.3884 25.7957 70.9324 24.6674 72.0204 23.801C73.1084 22.9346 74.7404 22.5015 76.9164 22.5015H80.7244V22.1388C80.7244 21.1112 80.4322 20.3557 79.8479 19.8721C79.2636 19.3886 78.5383 19.1468 77.6719 19.1468C76.8862 19.1468 76.2011 19.3382 75.6168 19.721C75.0325 20.0837 74.6699 20.6277 74.5288 21.353H70.751C70.8518 20.265 71.2145 19.3181 71.839 18.5121C72.4838 17.7062 73.3099 17.0917 74.3173 16.6686C75.3247 16.2253 76.453 16.0037 77.7022 16.0037C79.8379 16.0037 81.5202 16.5376 82.7493 17.6055C83.9783 18.6733 84.5928 20.1844 84.5928 22.1388V31.3566H81.2986L80.9359 28.9388C80.4927 29.7447 79.8681 30.4096 79.0622 30.9335C78.2764 31.4573 77.2589 31.7192 76.0097 31.7192ZM76.8862 28.697C77.9943 28.697 78.8506 28.3343 79.455 27.609C80.0796 26.8837 80.4725 25.9871 80.6337 24.9192H77.3395C76.3119 24.9192 75.5765 25.1106 75.1333 25.4935C74.69 25.8561 74.4684 26.3095 74.4684 26.8535C74.4684 27.4378 74.69 27.8911 75.1333 28.2135C75.5765 28.5358 76.1608 28.697 76.8862 28.697ZM88.2844 31.3566V16.3664H91.6995L92.0017 18.905C92.4652 18.0185 93.13 17.3133 93.9964 16.7895C94.8829 16.2656 95.9206 16.0037 97.1093 16.0037C98.9629 16.0037 100.404 16.588 101.431 17.7566C102.459 18.9252 102.972 20.6378 102.972 22.8943V31.3566H99.104V23.257C99.104 21.9675 98.842 20.9803 98.3182 20.2952C97.7943 19.6102 96.9783 19.2677 95.8702 19.2677C94.7822 19.2677 93.8856 19.6505 93.1804 20.4161C92.4954 21.1818 92.1529 22.2496 92.1529 23.6197V31.3566H88.2844ZM113.562 31.7192C112.152 31.7192 110.893 31.3767 109.784 30.6917C108.676 30.0066 107.8 29.0698 107.155 27.881C106.51 26.6923 106.188 25.3423 106.188 23.8312C106.188 22.3201 106.51 20.9803 107.155 19.8117C107.8 18.6229 108.676 17.6961 109.784 17.0312C110.893 16.3462 112.152 16.0037 113.562 16.0037C114.691 16.0037 115.678 16.2152 116.524 16.6384C117.37 17.0615 118.055 17.6558 118.579 18.4215V9.59658H122.448V31.3566H119.002L118.579 29.2108C118.096 29.8757 117.451 30.46 116.645 30.9637C115.859 31.4674 114.832 31.7192 113.562 31.7192ZM114.378 28.3343C115.627 28.3343 116.645 27.9213 117.431 27.0952C118.237 26.249 118.64 25.1711 118.64 23.8615C118.64 22.5518 118.237 21.484 117.431 20.6579C116.645 19.8117 115.627 19.3886 114.378 19.3886C113.149 19.3886 112.132 19.8016 111.326 20.6277C110.52 21.4538 110.117 22.5216 110.117 23.8312C110.117 25.1409 110.52 26.2188 111.326 27.065C112.132 27.9112 113.149 28.3343 114.378 28.3343ZM135.272 31.7192C134.144 31.7192 133.157 31.5077 132.31 31.0846C131.464 30.6615 130.779 30.0671 130.255 29.3015L129.832 31.3566H126.387V9.59658H130.255V18.5121C130.739 17.8472 131.373 17.2629 132.159 16.7592C132.965 16.2555 134.003 16.0037 135.272 16.0037C136.683 16.0037 137.942 16.3462 139.05 17.0312C140.158 17.7163 141.035 18.6532 141.679 19.8419C142.324 21.0306 142.646 22.3806 142.646 23.8917C142.646 25.4028 142.324 26.7527 141.679 27.9415C141.035 29.11 140.158 30.0369 139.05 30.7219C137.942 31.3868 136.683 31.7192 135.272 31.7192ZM134.456 28.3343C135.685 28.3343 136.703 27.9213 137.509 27.0952C138.315 26.2692 138.717 25.2013 138.717 23.8917C138.717 22.5821 138.315 21.5041 137.509 20.6579C136.703 19.8117 135.685 19.3886 134.456 19.3886C133.207 19.3886 132.179 19.8117 131.373 20.6579C130.588 21.484 130.195 22.5518 130.195 23.8615C130.195 25.1711 130.588 26.249 131.373 27.0952C132.179 27.9213 133.207 28.3343 134.456 28.3343ZM153.295 31.7192C151.844 31.7192 150.535 31.3868 149.366 30.7219C148.218 30.057 147.301 29.1403 146.616 27.9717C145.951 26.7829 145.619 25.4129 145.619 23.8615C145.619 22.3101 145.961 20.9501 146.646 19.7815C147.331 18.5927 148.248 17.6659 149.396 17.001C150.565 16.3361 151.875 16.0037 153.325 16.0037C154.756 16.0037 156.045 16.3361 157.194 17.001C158.362 17.6659 159.279 18.5927 159.944 19.7815C160.629 20.9501 160.971 22.3101 160.971 23.8615C160.971 25.4129 160.629 26.7829 159.944 27.9717C159.279 29.1403 158.362 30.057 157.194 30.7219C156.025 31.3868 154.725 31.7192 153.295 31.7192ZM153.295 28.3646C154.302 28.3646 155.179 27.9918 155.924 27.2463C156.67 26.4807 157.043 25.3524 157.043 23.8615C157.043 22.3705 156.67 21.2523 155.924 20.5068C155.179 19.7412 154.312 19.3584 153.325 19.3584C152.298 19.3584 151.411 19.7412 150.666 20.5068C149.94 21.2523 149.578 22.3705 149.578 23.8615C149.578 25.3524 149.94 26.4807 150.666 27.2463C151.411 27.9918 152.288 28.3646 153.295 28.3646ZM164.521 31.3566V10.201H173.013C175.209 10.201 176.882 10.7148 178.03 11.7424C179.199 12.7498 179.783 14.0493 179.783 15.641C179.783 16.9708 179.42 18.0386 178.695 18.8446C177.99 19.6304 177.124 20.1643 176.096 20.4464C177.305 20.6881 178.302 21.2926 179.088 22.2597C179.874 23.2066 180.267 24.3148 180.267 25.5841C180.267 27.2564 179.662 28.6366 178.453 29.7246C177.244 30.8126 175.532 31.3566 173.316 31.3566H164.521ZM168.389 19.0864H172.439C173.527 19.0864 174.363 18.8345 174.948 18.3308C175.532 17.8271 175.824 17.1118 175.824 16.185C175.824 15.2985 175.532 14.6034 174.948 14.0997C174.383 13.5758 173.527 13.3139 172.379 13.3139H168.389V19.0864ZM168.389 28.2135H172.711C173.86 28.2135 174.746 27.9515 175.371 27.4277C176.015 26.8837 176.338 26.1281 176.338 25.161C176.338 24.1738 176.005 23.3981 175.34 22.8339C174.676 22.2698 173.779 21.9877 172.651 21.9877H168.389V28.2135ZM188.664 31.7192C187.375 31.7192 186.317 31.5178 185.491 31.1148C184.665 30.6917 184.05 30.1376 183.647 29.4526C183.244 28.7675 183.043 28.012 183.043 27.1859C183.043 25.7957 183.587 24.6674 184.675 23.801C185.763 22.9346 187.395 22.5015 189.571 22.5015H193.379V22.1388C193.379 21.1112 193.087 20.3557 192.502 19.8721C191.918 19.3886 191.193 19.1468 190.326 19.1468C189.541 19.1468 188.856 19.3382 188.271 19.721C187.687 20.0837 187.324 20.6277 187.183 21.353H183.405C183.506 20.265 183.869 19.3181 184.493 18.5121C185.138 17.7062 185.964 17.0917 186.972 16.6686C187.979 16.2253 189.107 16.0037 190.357 16.0037C192.492 16.0037 194.175 16.5376 195.404 17.6055C196.633 18.6733 197.247 20.1844 197.247 22.1388V31.3566H193.953L193.59 28.9388C193.147 29.7447 192.523 30.4096 191.717 30.9335C190.931 31.4573 189.913 31.7192 188.664 31.7192ZM189.541 28.697C190.649 28.697 191.505 28.3343 192.109 27.609C192.734 26.8837 193.127 25.9871 193.288 24.9192H189.994C188.966 24.9192 188.231 25.1106 187.788 25.4935C187.344 25.8561 187.123 26.3095 187.123 26.8535C187.123 27.4378 187.344 27.8911 187.788 28.2135C188.231 28.5358 188.815 28.697 189.541 28.697ZM200.939 31.3566V16.3664H204.354L204.656 18.905C205.12 18.0185 205.784 17.3133 206.651 16.7895C207.537 16.2656 208.575 16.0037 209.764 16.0037C211.617 16.0037 213.058 16.588 214.086 17.7566C215.113 18.9252 215.627 20.6378 215.627 22.8943V31.3566H211.758V23.257C211.758 21.9675 211.496 20.9803 210.973 20.2952C210.449 19.6102 209.633 19.2677 208.525 19.2677C207.437 19.2677 206.54 19.6505 205.835 20.4161C205.15 21.1818 204.807 22.2496 204.807 23.6197V31.3566H200.939ZM219.326 31.3566V9.59658H223.194V22.441L228.514 16.3664H233.107L226.972 23.1966L234.105 31.3566H229.269L223.194 23.8312V31.3566H219.326Z" fill="white"/>
<path d="M21.1062 37.68L8.32162 24.8948C5.99045 22.5637 5.99045 18.7839 8.32162 16.4533L24.775 -0.00012207L32.9271 8.15194C35.4689 10.6938 35.4689 14.8149 32.9271 17.3567L21.1062 29.177C18.7587 31.5251 18.7587 35.3319 21.1062 37.68Z" fill="url(#paint0_linear_3025_58521)"/>
<path d="M37.1798 30.1102L29.6107 37.6794C27.2626 40.0274 23.4558 40.0274 21.1077 37.6794C18.7597 35.3313 18.7597 31.5245 21.1077 29.1764L33.2795 17.0046L37.1798 20.9049C39.7216 23.4473 39.7216 27.5684 37.1798 30.1102Z" fill="url(#paint1_linear_3025_58521)"/>
<defs>
<linearGradient id="paint0_linear_3025_58521" x1="23.2341" y1="-8.42273" x2="-4.23077" y2="1.35701" gradientUnits="userSpaceOnUse">
<stop stop-color="#27AE60"/>
<stop offset="1" stop-color="#2ECC71"/>
</linearGradient>
<linearGradient id="paint1_linear_3025_58521" x1="19.8561" y1="39.4404" x2="37.1451" y2="37.2001" gradientUnits="userSpaceOnUse">
<stop stop-color="#505262"/>
<stop offset="1" stop-color="#15281A"/>
</linearGradient>
</defs>
</svg>
