<svg width="143" height="24" viewBox="0 0 143 24" fill="none" xmlns="http://www.w3.org/2000/svg">
<path d="M33.0338 19V6.12663H35.3877V17.1609H41.0888V19H33.0338ZM46.2525 19.2207C45.4679 19.2207 44.8242 19.0981 44.3215 18.8529C43.8188 18.5954 43.4449 18.2582 43.1997 17.8414C42.9545 17.4245 42.8319 16.9648 42.8319 16.4621C42.8319 15.6161 43.1629 14.9296 43.825 14.4024C44.487 13.8752 45.4801 13.6116 46.8042 13.6116H49.1215V13.3909C49.1215 12.7656 48.9437 12.3058 48.5881 12.0116C48.2326 11.7173 47.7912 11.5702 47.264 11.5702C46.7859 11.5702 46.369 11.6867 46.0135 11.9196C45.6579 12.1403 45.4372 12.4714 45.3514 12.9127H43.0526C43.1139 12.2507 43.3346 11.6744 43.7146 11.184C44.107 10.6936 44.6096 10.3197 45.2227 10.0622C45.8357 9.79247 46.5223 9.65761 47.2824 9.65761C48.582 9.65761 49.6057 9.98251 50.3536 10.6323C51.1015 11.2821 51.4754 12.2016 51.4754 13.3909V19H49.4709L49.2502 17.5288C48.9805 18.0192 48.6004 18.4238 48.11 18.7425C47.6318 19.0613 47.0127 19.2207 46.2525 19.2207ZM46.7859 17.3816C47.4602 17.3816 47.9812 17.1609 48.3491 16.7196C48.7291 16.2782 48.9682 15.7326 49.0663 15.0828H47.0617C46.4364 15.0828 45.9889 15.1993 45.7192 15.4322C45.4495 15.6529 45.3146 15.9288 45.3146 16.2598C45.3146 16.6154 45.4495 16.8912 45.7192 17.0874C45.9889 17.2836 46.3445 17.3816 46.7859 17.3816ZM53.7218 19V9.8783H55.7999L55.9839 11.4231C56.2658 10.8836 56.6704 10.4545 57.1976 10.1358C57.7371 9.81699 58.3685 9.65761 59.0919 9.65761C60.2198 9.65761 61.0964 10.0132 61.7217 10.7243C62.347 11.4354 62.6596 12.4775 62.6596 13.8507V19H60.3056V14.0713C60.3056 13.2867 60.1462 12.6859 59.8275 12.2691C59.5087 11.8522 59.0122 11.6438 58.3378 11.6438C57.6758 11.6438 57.1302 11.8767 56.7011 12.3426C56.2842 12.8085 56.0758 13.4583 56.0758 14.292V19H53.7218ZM69.1036 19.2207C68.2454 19.2207 67.4791 19.0123 66.8048 18.5954C66.1305 18.1786 65.5972 17.6084 65.2048 16.8851C64.8125 16.1617 64.6163 15.3403 64.6163 14.4208C64.6163 13.5012 64.8125 12.6859 65.2048 11.9748C65.5972 11.2515 66.1305 10.6875 66.8048 10.2829C67.4791 9.86603 68.2454 9.65761 69.1036 9.65761C69.7902 9.65761 70.391 9.78634 70.9059 10.0438C71.4208 10.3013 71.8377 10.663 72.1565 11.1289V5.75882H74.5104V19H72.4139L72.1565 17.6943C71.8622 18.0989 71.4699 18.4544 70.9795 18.7609C70.5013 19.0674 69.876 19.2207 69.1036 19.2207ZM69.6002 17.1609C70.3603 17.1609 70.9795 16.9096 71.4576 16.4069C71.948 15.892 72.1932 15.2361 72.1932 14.4391C72.1932 13.6422 71.948 12.9924 71.4576 12.4898C70.9795 11.9748 70.3603 11.7173 69.6002 11.7173C68.8523 11.7173 68.2331 11.9687 67.7427 12.4714C67.2523 12.974 67.0071 13.6238 67.0071 14.4208C67.0071 15.2177 67.2523 15.8736 67.7427 16.3885C68.2331 16.9035 68.8523 17.1609 69.6002 17.1609ZM82.3144 19.2207C81.6278 19.2207 81.027 19.092 80.5121 18.8345C79.9971 18.577 79.5803 18.2153 79.2615 17.7494L79.0041 19H76.9075V5.75882H79.2615V11.184C79.5558 10.7794 79.942 10.4239 80.4201 10.1174C80.9105 9.81086 81.542 9.65761 82.3144 9.65761C83.1726 9.65761 83.9389 9.86603 84.6132 10.2829C85.2875 10.6997 85.8208 11.2698 86.2131 11.9932C86.6055 12.7166 86.8016 13.538 86.8016 14.4575C86.8016 15.3771 86.6055 16.1985 86.2131 16.9219C85.8208 17.633 85.2875 18.1969 84.6132 18.6138C83.9389 19.0184 83.1726 19.2207 82.3144 19.2207ZM81.8178 17.1609C82.5657 17.1609 83.1848 16.9096 83.6753 16.4069C84.1657 15.9043 84.4109 15.2545 84.4109 14.4575C84.4109 13.6606 84.1657 13.0047 83.6753 12.4898C83.1848 11.9748 82.5657 11.7173 81.8178 11.7173C81.0577 11.7173 80.4324 11.9748 79.942 12.4898C79.4638 12.9924 79.2247 13.6422 79.2247 14.4391C79.2247 15.2361 79.4638 15.892 79.942 16.4069C80.4324 16.9096 81.0577 17.1609 81.8178 17.1609ZM93.2814 19.2207C92.3987 19.2207 91.6018 19.0184 90.8907 18.6138C90.1918 18.2092 89.634 17.6514 89.2171 16.9403C88.8125 16.2169 88.6102 15.3832 88.6102 14.4391C88.6102 13.4951 88.8187 12.6675 89.2355 11.9564C89.6524 11.2331 90.2102 10.6691 90.9091 10.2645C91.6202 9.8599 92.4171 9.65761 93.2998 9.65761C94.1703 9.65761 94.955 9.8599 95.6538 10.2645C96.3649 10.6691 96.9228 11.2331 97.3274 11.9564C97.7442 12.6675 97.9526 13.4951 97.9526 14.4391C97.9526 15.3832 97.7442 16.2169 97.3274 16.9403C96.9228 17.6514 96.3649 18.2092 95.6538 18.6138C94.9427 19.0184 94.1519 19.2207 93.2814 19.2207ZM93.2814 17.1793C93.8945 17.1793 94.4278 16.9525 94.8814 16.4989C95.335 16.033 95.5619 15.3464 95.5619 14.4391C95.5619 13.5319 95.335 12.8514 94.8814 12.3978C94.4278 11.9319 93.9006 11.699 93.2998 11.699C92.6745 11.699 92.1351 11.9319 91.6815 12.3978C91.2401 12.8514 91.0194 13.5319 91.0194 14.4391C91.0194 15.3464 91.2401 16.033 91.6815 16.4989C92.1351 16.9525 92.6684 17.1793 93.2814 17.1793ZM100.113 19V6.12663H105.28C106.617 6.12663 107.634 6.43926 108.333 7.06454C109.044 7.67756 109.4 8.46835 109.4 9.43692C109.4 10.2461 109.179 10.8959 108.738 11.3863C108.309 11.8645 107.781 12.1894 107.156 12.361C107.892 12.5081 108.499 12.876 108.977 13.4644C109.455 14.0407 109.694 14.715 109.694 15.4874C109.694 16.505 109.326 17.3449 108.591 18.0069C107.855 18.669 106.813 19 105.464 19H100.113ZM102.466 11.5334H104.931C105.593 11.5334 106.102 11.3802 106.457 11.0737C106.813 10.7672 106.991 10.3319 106.991 9.76795C106.991 9.2285 106.813 8.80551 106.457 8.499C106.114 8.18024 105.593 8.02085 104.894 8.02085H102.466V11.5334ZM102.466 17.0874H105.096C105.795 17.0874 106.335 16.928 106.715 16.6092C107.107 16.2782 107.303 15.8184 107.303 15.2299C107.303 14.6292 107.101 14.1572 106.696 13.8139C106.292 13.4706 105.746 13.2989 105.06 13.2989H102.466V17.0874ZM114.804 19.2207C114.019 19.2207 113.376 19.0981 112.873 18.8529C112.37 18.5954 111.996 18.2582 111.751 17.8414C111.506 17.4245 111.383 16.9648 111.383 16.4621C111.383 15.6161 111.714 14.9296 112.376 14.4024C113.038 13.8752 114.032 13.6116 115.356 13.6116H117.673V13.3909C117.673 12.7656 117.495 12.3058 117.14 12.0116C116.784 11.7173 116.343 11.5702 115.815 11.5702C115.337 11.5702 114.92 11.6867 114.565 11.9196C114.209 12.1403 113.989 12.4714 113.903 12.9127H111.604C111.665 12.2507 111.886 11.6744 112.266 11.184C112.658 10.6936 113.161 10.3197 113.774 10.0622C114.387 9.79247 115.074 9.65761 115.834 9.65761C117.133 9.65761 118.157 9.98251 118.905 10.6323C119.653 11.2821 120.027 12.2016 120.027 13.3909V19H118.022L117.802 17.5288C117.532 18.0192 117.152 18.4238 116.661 18.7425C116.183 19.0613 115.564 19.2207 114.804 19.2207ZM115.337 17.3816C116.012 17.3816 116.533 17.1609 116.9 16.7196C117.281 16.2782 117.52 15.7326 117.618 15.0828H115.613C114.988 15.0828 114.54 15.1993 114.271 15.4322C114.001 15.6529 113.866 15.9288 113.866 16.2598C113.866 16.6154 114.001 16.8912 114.271 17.0874C114.54 17.2836 114.896 17.3816 115.337 17.3816ZM122.273 19V9.8783H124.351L124.535 11.4231C124.817 10.8836 125.222 10.4545 125.749 10.1358C126.289 9.81699 126.92 9.65761 127.643 9.65761C128.771 9.65761 129.648 10.0132 130.273 10.7243C130.898 11.4354 131.211 12.4775 131.211 13.8507V19H128.857V14.0713C128.857 13.2867 128.698 12.6859 128.379 12.2691C128.06 11.8522 127.564 11.6438 126.889 11.6438C126.227 11.6438 125.682 11.8767 125.253 12.3426C124.836 12.8085 124.627 13.4583 124.627 14.292V19H122.273ZM133.462 19V5.75882H135.816V13.5748L139.053 9.8783H141.848L138.115 14.0346L142.455 19H139.513L135.816 14.4208V19H133.462Z" fill="black"/>
<path d="M12.8434 22.9287L5.06391 15.1488C3.64536 13.7303 3.64536 11.4303 5.06391 10.0121L15.076 0L20.0366 4.96062C21.5833 6.50734 21.5833 9.01507 20.0366 10.5618L12.8434 17.7546C11.415 19.1834 11.415 21.4999 12.8434 22.9287Z" fill="url(#paint0_linear_3025_19935)"/>
<path d="M22.6241 18.3225L18.0182 22.9284C16.5894 24.3573 14.2729 24.3573 12.8441 22.9284C11.4153 21.4996 11.4153 19.1831 12.8441 17.7543L20.2507 10.3477L22.6241 12.721C24.1708 14.2681 24.1708 16.7758 22.6241 18.3225Z" fill="url(#paint1_linear_3025_19935)"/>
<defs>
<linearGradient id="paint0_linear_3025_19935" x1="14.1383" y1="-5.12525" x2="-2.57435" y2="0.82583" gradientUnits="userSpaceOnUse">
<stop stop-color="#27AE60"/>
<stop offset="1" stop-color="#2ECC71"/>
</linearGradient>
<linearGradient id="paint1_linear_3025_19935" x1="12.0824" y1="24.0001" x2="22.603" y2="22.6368" gradientUnits="userSpaceOnUse">
<stop stop-color="#505262"/>
<stop offset="1" stop-color="#15281A"/>
</linearGradient>
</defs>
</svg>
