<svg width="38" height="38" viewBox="0 0 38 38" fill="none" xmlns="http://www.w3.org/2000/svg">
<path d="M28.5 3.16602H9.5C6.87167 3.16602 4.75 5.27185 4.75 7.86852V25.1427C4.75 27.7393 6.87167 29.8452 9.5 29.8452H10.7033C11.97 29.8452 13.1733 30.336 14.06 31.2227L16.7675 33.8985C18.0025 35.1177 20.0133 35.1177 21.2483 33.8985L23.9558 31.2227C24.8425 30.336 26.0617 29.8452 27.3125 29.8452H28.5C31.1283 29.8452 33.25 27.7393 33.25 25.1427V7.86852C33.25 5.27185 31.1283 3.16602 28.5 3.16602ZM19 9.10352C21.0425 9.10352 22.6892 10.7502 22.6892 12.7927C22.6892 14.8352 21.0425 16.4818 19 16.4818C16.9575 16.4818 15.3108 14.8193 15.3108 12.7927C15.3108 10.7502 16.9575 9.10352 19 9.10352ZM23.2433 23.8444H14.7567C13.4742 23.8444 12.73 22.4193 13.4425 21.3585C14.5192 19.7593 16.6092 18.6827 19 18.6827C21.3908 18.6827 23.4808 19.7593 24.5575 21.3585C25.27 22.4193 24.51 23.8444 23.2433 23.8444Z" fill="#292D32"/>
</svg>
