<svg width="38" height="38" viewBox="0 0 38 38" fill="none" xmlns="http://www.w3.org/2000/svg">
<path d="M31.9677 22.2619L30.1786 19.2853C29.7827 18.6361 29.4344 17.3853 29.4344 16.6253V13.6644C29.4344 7.91693 24.7636 3.24609 19.0319 3.24609C13.2844 3.26193 8.61357 7.91693 8.61357 13.6644V16.6094C8.61357 17.3694 8.26524 18.6203 7.88524 19.2694L6.09607 22.2461C5.41524 23.4019 5.25691 24.7161 5.68441 25.8561C6.11191 27.0119 7.07774 27.9303 8.34441 28.3419C10.0544 28.9119 11.7802 29.3236 13.5377 29.6244C13.7119 29.6561 13.8861 29.6719 14.0602 29.7036C14.2819 29.7353 14.5194 29.7669 14.7569 29.7986C15.1686 29.8619 15.5802 29.9094 16.0077 29.9411C17.0052 30.0361 18.0186 30.0836 19.0319 30.0836C20.0294 30.0836 21.0269 30.0361 22.0086 29.9411C22.3727 29.9094 22.7369 29.8778 23.0852 29.8303C23.3702 29.7986 23.6552 29.7669 23.9402 29.7194C24.1144 29.7036 24.2886 29.6719 24.4627 29.6403C26.2361 29.3553 27.9936 28.9119 29.7036 28.3419C30.9227 27.9303 31.8569 27.0119 32.3002 25.8403C32.7436 24.6528 32.6169 23.3544 31.9677 22.2619ZM20.1877 15.8336C20.1877 16.4986 19.6494 17.0369 18.9844 17.0369C18.3194 17.0369 17.7811 16.4986 17.7811 15.8336V10.9253C17.7811 10.2603 18.3194 9.72193 18.9844 9.72193C19.6494 9.72193 20.1877 10.2603 20.1877 10.9253V15.8336Z" fill="#292D32"/>
<path d="M23.48 31.6818C22.815 33.5185 21.0575 34.8327 18.9992 34.8327C17.7483 34.8327 16.5133 34.326 15.6425 33.4235C15.1358 32.9485 14.7558 32.3152 14.5342 31.666C14.74 31.6977 14.9458 31.7135 15.1675 31.7452C15.5317 31.7927 15.9117 31.8402 16.2917 31.8718C17.1942 31.951 18.1125 31.9985 19.0308 31.9985C19.9333 31.9985 20.8358 31.951 21.7225 31.8718C22.055 31.8402 22.3875 31.8243 22.7042 31.7768C22.9575 31.7452 23.2108 31.7135 23.48 31.6818Z" fill="#292D32"/>
</svg>
