<svg width="36" height="35" viewBox="0 0 36 35" fill="none" xmlns="http://www.w3.org/2000/svg">
<path d="M26.3145 11.3306C26.2124 11.316 26.1104 11.316 26.0083 11.3306C23.7479 11.2577 21.9541 9.4056 21.9541 7.1306C21.9541 4.81185 23.8354 2.91602 26.1687 2.91602C28.4874 2.91602 30.3833 4.79727 30.3833 7.1306C30.3687 9.4056 28.5749 11.2577 26.3145 11.3306Z" fill="white"/>
<path d="M31.0684 21.4371C29.4351 22.5309 27.1455 22.9392 25.0309 22.6621C25.5851 21.4663 25.8768 20.1392 25.8913 18.7392C25.8913 17.2809 25.5705 15.8954 24.958 14.685C27.1163 14.3934 29.4059 14.8017 31.0538 15.8954C33.358 17.4121 33.358 19.9059 31.0684 21.4371Z" fill="white"/>
<path d="M10.1421 11.3306C10.2441 11.316 10.3462 11.316 10.4483 11.3306C12.7087 11.2577 14.5025 9.4056 14.5025 7.1306C14.5025 4.79727 12.6212 2.91602 10.2879 2.91602C7.96914 2.91602 6.08789 4.79727 6.08789 7.1306C6.08789 9.4056 7.88164 11.2577 10.1421 11.3306Z" fill="white"/>
<path d="M10.3019 18.7395C10.3019 20.1541 10.6081 21.4957 11.1623 22.7061C9.10605 22.9249 6.9623 22.4874 5.3873 21.452C3.08314 19.9207 3.08314 17.427 5.3873 15.8957C6.94772 14.8457 9.1498 14.4228 11.2206 14.6561C10.6227 15.8811 10.3019 17.2666 10.3019 18.7395Z" fill="white"/>
<path d="M18.425 23.1438C18.3083 23.1292 18.1771 23.1292 18.0458 23.1438C15.3625 23.0563 13.2188 20.8542 13.2188 18.1417C13.2333 15.3708 15.4646 13.125 18.25 13.125C21.0208 13.125 23.2667 15.3708 23.2667 18.1417C23.2521 20.8542 21.1229 23.0563 18.425 23.1438Z" fill="white"/>
<path d="M13.6857 26.1621C11.4837 27.635 11.4837 30.0559 13.6857 31.5142C16.1941 33.1913 20.3066 33.1913 22.8149 31.5142C25.017 30.0413 25.017 27.6204 22.8149 26.1621C20.3212 24.485 16.2087 24.485 13.6857 26.1621Z" fill="white"/>
</svg>
