<svg width="70" height="55" viewBox="0 0 70 55" fill="none" xmlns="http://www.w3.org/2000/svg">
<path d="M32.2177 40.4001C32.2252 42.2974 31.832 44.174 31.0649 45.9013C30.2977 47.6286 29.1748 49.1658 27.7731 50.4075C24.7653 53.2166 20.8123 54.726 16.7417 54.6198C11.5742 54.6198 7.49408 52.779 4.50141 49.0975C1.51186 45.4368 -0.0853995 40.7942 0.00352242 36.0241C0.00352242 24.6035 3.06434 16.0092 9.18598 10.2413C15.3076 4.47333 22.0841 1.28004 29.5154 0.661399V13.1889C25.7705 13.5971 22.2252 15.1219 19.3196 17.574C17.8242 18.719 16.5923 20.1857 15.7108 21.8708C14.8292 23.5558 14.3194 25.4182 14.2172 27.3267C15.4514 26.7114 16.809 26.3999 18.1818 26.4169C22.6204 26.4169 26.0694 27.7058 28.5287 30.2834C29.771 31.6332 30.7373 33.2234 31.3707 34.9607C32.0042 36.698 32.2922 38.5473 32.2177 40.4001ZM69.9964 40.4001C70.0058 42.2977 69.6133 44.1749 68.846 45.9025C68.0788 47.63 66.9549 49.167 65.5518 50.4075C62.544 53.2166 58.591 54.726 54.5205 54.6198C49.3648 54.6198 45.3173 52.779 42.3779 49.0975C39.4243 45.4194 37.8485 40.7842 37.9334 36.0241C37.9334 24.6035 40.9616 16.0092 47.018 10.2413C53.0745 4.47333 59.8421 1.2679 67.3208 0.625V13.1525C63.5841 13.5765 60.0513 15.1139 57.1605 17.574C55.654 18.7122 54.411 20.1762 53.5199 21.8618C52.6288 23.5475 52.1115 25.4133 52.0048 27.3267C53.2358 26.7112 54.5906 26.3996 55.9605 26.4169C60.3932 26.4169 63.8422 27.7058 66.3074 30.2834C67.5498 31.6328 68.5155 33.2231 69.1476 34.9607C69.7796 36.6982 70.0652 38.5477 69.9875 40.4001H69.9964Z" fill="#27AE60" fill-opacity="0.55"/>
</svg>
