<svg width="38" height="38" viewBox="0 0 38 38" fill="none" xmlns="http://www.w3.org/2000/svg">
<path d="M34.0417 17.2577V6.49102C34.0417 4.11602 33.0284 3.16602 30.5109 3.16602H24.1142C21.5967 3.16602 20.5834 4.11602 20.5834 6.49102V17.2577C20.5834 19.6327 21.5967 20.5827 24.1142 20.5827H30.5109C33.0284 20.5827 34.0417 19.6327 34.0417 17.2577Z" fill="#292D32"/>
<path d="M17.4167 20.741V31.5077C17.4167 33.8827 16.4034 34.8327 13.8859 34.8327H7.48921C4.97171 34.8327 3.95837 33.8827 3.95837 31.5077V20.741C3.95837 18.366 4.97171 17.416 7.48921 17.416H13.8859C16.4034 17.416 17.4167 18.366 17.4167 20.741Z" fill="#292D32"/>
<path d="M34.0417 31.5083V27.075C34.0417 24.7 33.0284 23.75 30.5109 23.75H24.1142C21.5967 23.75 20.5834 24.7 20.5834 27.075V31.5083C20.5834 33.8833 21.5967 34.8333 24.1142 34.8333H30.5109C33.0284 34.8333 34.0417 33.8833 34.0417 31.5083Z" fill="#292D32"/>
<path d="M17.4167 10.9243V6.49102C17.4167 4.11602 16.4034 3.16602 13.8859 3.16602H7.48921C4.97171 3.16602 3.95837 4.11602 3.95837 6.49102V10.9243C3.95837 13.2993 4.97171 14.2493 7.48921 14.2493H13.8859C16.4034 14.2493 17.4167 13.2993 17.4167 10.9243Z" fill="#292D32"/>
</svg>
