<svg width="38" height="38" viewBox="0 0 38 38" fill="none" xmlns="http://www.w3.org/2000/svg">
<path d="M31.8253 14.5999C28.9595 14.5999 27.7878 12.5732 29.2128 10.0874C30.0362 8.64657 29.5453 6.8099 28.1045 5.98657L25.3653 4.41907C24.1145 3.6749 22.4995 4.11823 21.7553 5.36907L21.5812 5.6699C20.1562 8.15573 17.8128 8.15573 16.372 5.6699L16.1978 5.36907C15.4853 4.11823 13.8703 3.6749 12.6195 4.41907L9.88033 5.98657C8.43949 6.8099 7.94866 8.6624 8.77199 10.1032C10.2128 12.5732 9.04116 14.5999 6.17533 14.5999C4.52866 14.5999 3.16699 15.9457 3.16699 17.6082V20.3949C3.16699 22.0416 4.51283 23.4032 6.17533 23.4032C9.04116 23.4032 10.2128 25.4299 8.77199 27.9157C7.94866 29.3566 8.43949 31.1932 9.88033 32.0166L12.6195 33.5841C13.8703 34.3282 15.4853 33.8849 16.2295 32.6341L16.4037 32.3332C17.8287 29.8474 20.172 29.8474 21.6128 32.3332L21.787 32.6341C22.5312 33.8849 24.1462 34.3282 25.397 33.5841L28.1362 32.0166C29.577 31.1932 30.0678 29.3407 29.2445 27.9157C27.8037 25.4299 28.9753 23.4032 31.8412 23.4032C33.4878 23.4032 34.8495 22.0574 34.8495 20.3949V17.6082C34.8337 15.9616 33.4878 14.5999 31.8253 14.5999ZM19.0003 24.1474C16.1662 24.1474 13.8545 21.8357 13.8545 19.0016C13.8545 16.1674 16.1662 13.8557 19.0003 13.8557C21.8345 13.8557 24.1462 16.1674 24.1462 19.0016C24.1462 21.8357 21.8345 24.1474 19.0003 24.1474Z" fill="#292D32"/>
</svg>
