<svg width="45" height="54" viewBox="0 0 45 54" fill="none" xmlns="http://www.w3.org/2000/svg">
<path d="M20.327 51.4323L3.07256 34.1771C-0.0736654 31.0309 -0.0736654 25.9296 3.07256 22.7841L25.2786 0.578125L36.2808 11.5804C39.7114 15.0109 39.7114 20.5729 36.2808 24.0034L20.327 39.9565C17.1587 43.1255 17.1587 48.2633 20.327 51.4323Z" fill="url(#paint0_linear_3025_20203)"/>
<path d="M42.0203 41.217L31.8048 51.4326C28.6357 54.6016 23.4979 54.6016 20.3289 51.4326C17.1599 48.2635 17.1599 43.1257 20.3289 39.9567L36.7563 23.5293L42.0203 28.7933C45.4508 32.2246 45.4508 37.7865 42.0203 41.217Z" fill="url(#paint1_linear_3025_20203)"/>
<defs>
<linearGradient id="paint0_linear_3025_20203" x1="23.1989" y1="-10.7893" x2="-13.8685" y2="2.40976" gradientUnits="userSpaceOnUse">
<stop stop-color="#27AE60"/>
<stop offset="1" stop-color="#2ECC71"/>
</linearGradient>
<linearGradient id="paint1_linear_3025_20203" x1="18.6397" y1="53.8093" x2="41.9735" y2="50.7857" gradientUnits="userSpaceOnUse">
<stop stop-color="#505262"/>
<stop offset="1" stop-color="#15281A"/>
</linearGradient>
</defs>
</svg>
