<svg width="38" height="38" viewBox="0 0 38 38" fill="none" xmlns="http://www.w3.org/2000/svg">
<path d="M31.7296 10.798L22.6096 4.41718C20.1237 2.67551 16.3079 2.77051 13.9171 4.62301L5.98456 10.8138C4.40122 12.0488 3.15039 14.5822 3.15039 16.5772V27.5022C3.15039 31.5397 6.42789 34.833 10.4654 34.833H27.5337C31.5712 34.833 34.8487 31.5555 34.8487 27.518V16.783C34.8487 14.6455 33.4712 12.0172 31.7296 10.798ZM26.7262 21.2163C26.7262 21.8338 26.2354 22.3247 25.6179 22.3247C25.0004 22.3247 24.5096 21.8338 24.5096 21.2163V20.9313L20.2029 25.238C19.9654 25.4755 19.6487 25.5863 19.3162 25.5547C18.9996 25.523 18.6987 25.333 18.5246 25.0638L16.9096 22.6572L13.1412 26.4255C12.9196 26.6472 12.6504 26.7422 12.3654 26.7422C12.0804 26.7422 11.7954 26.6313 11.5896 26.4255C11.1621 25.998 11.1621 25.3013 11.5896 24.858L16.3079 20.1397C16.5454 19.9022 16.8621 19.7913 17.1946 19.823C17.5271 19.8547 17.8279 20.0288 18.0021 20.3138L19.6171 22.7205L22.9579 19.3797H22.6729C22.0554 19.3797 21.5646 18.8888 21.5646 18.2713C21.5646 17.6538 22.0554 17.163 22.6729 17.163H25.6179C25.7604 17.163 25.9029 17.1947 26.0454 17.2422C26.3146 17.353 26.5362 17.5747 26.6471 17.8438C26.7104 17.9863 26.7262 18.1288 26.7262 18.2713V21.2163Z" fill="#292D32"/>
</svg>
