<svg width="8" height="15" viewBox="0 0 8 15" fill="none" xmlns="http://www.w3.org/2000/svg">
<path fill-rule="evenodd" clip-rule="evenodd" d="M4.75015 1.56641C4.75015 1.15219 4.41436 0.816406 4.00015 0.816406C3.58594 0.816406 3.25015 1.15219 3.25015 1.56641V2.83885C2.67166 2.88785 2.07057 3.0258 1.5694 3.33796C1.00082 3.6921 0.595508 4.25228 0.504051 5.02226C0.43307 5.61987 0.497941 6.15623 0.71432 6.6233C0.931612 7.09234 1.2738 7.43125 1.65704 7.678C2.37436 8.13983 3.32585 8.32657 4.0808 8.47474L4.09929 8.47837L4.16589 8.49144L4.16591 8.49144C4.54568 8.56591 4.88816 8.63307 5.19945 8.7172C5.53031 8.80662 5.77497 8.90259 5.94674 9.01078C6.10761 9.1121 6.17926 9.20743 6.21512 9.30283C6.25366 9.40536 6.28442 9.59851 6.1982 9.95066C6.14141 10.1826 5.98413 10.3761 5.65064 10.534C5.3006 10.6996 4.80966 10.795 4.23499 10.8132C3.06744 10.8501 1.84745 10.5642 1.34982 10.3019C0.983373 10.1088 0.529763 10.2493 0.336649 10.6157C0.143535 10.9822 0.284045 11.4358 0.650487 11.6289C1.23972 11.9394 2.22539 12.192 3.25015 12.2815V13.5664C3.25015 13.9806 3.58594 14.3164 4.00015 14.3164C4.41436 14.3164 4.75015 13.9806 4.75015 13.5664V12.2827C5.28594 12.2305 5.8226 12.1121 6.2924 11.8897C6.91602 11.5946 7.46329 11.0911 7.65516 10.3074C7.78978 9.75759 7.79413 9.24041 7.6192 8.77504C7.44159 8.30256 7.11272 7.97243 6.74618 7.74156C6.39055 7.51757 5.98093 7.37459 5.59082 7.26916C5.22629 7.17064 4.83424 7.09384 4.46905 7.02231L4.46903 7.0223L4.38822 7.00646C3.55776 6.84345 2.90467 6.69726 2.46905 6.41679C2.27289 6.29049 2.14954 6.15289 2.07536 5.99277C2.00027 5.83068 1.94773 5.58523 1.99358 5.19919C2.02779 4.91116 2.15423 4.74086 2.36243 4.61118C2.60339 4.4611 2.97516 4.35853 3.46643 4.32682C4.44689 4.26352 5.62007 4.49871 6.35604 4.74625C6.74864 4.87829 7.17395 4.66707 7.306 4.27447C7.43804 3.88187 7.22682 3.45655 6.83422 3.32451C6.29037 3.14159 5.53998 2.96019 4.75015 2.87187V1.56641Z" fill="#26B194"/>
</svg>
